<svg width="21" height="21" viewBox="0 0 21 21" fill="none" xmlns="http://www.w3.org/2000/svg">
<path d="M13.3618 3.88464H7.63635C5.56711 3.88464 3.88367 5.56809 3.88367 7.63729V13.3628C3.88367 15.432 5.56711 17.1154 7.63635 17.1154H13.3618C15.431 17.1154 17.1145 15.432 17.1145 13.3628V7.63733C17.1145 5.56809 15.431 3.88464 13.3618 3.88464ZM10.4991 14.3311C8.3088 14.3311 6.52684 12.5492 6.52684 10.3589C6.52684 8.16856 8.30876 6.38668 10.4991 6.38668C12.6894 6.38668 14.4713 8.1686 14.4713 10.3589C14.4713 12.5492 12.6894 14.3311 10.4991 14.3311ZM15.3601 6.46059C15.3601 6.80036 15.0847 7.07582 14.7449 7.07582C14.4051 7.07582 14.1297 6.80036 14.1297 6.46059V6.44923C14.1297 6.10945 14.4051 5.83399 14.7449 5.83399C15.0847 5.83399 15.3601 6.10945 15.3601 6.44923V6.46059Z" fill="#3E3E3E"/>
<path d="M10.5007 13.1006C12.0149 13.1006 13.2425 11.8731 13.2425 10.3588C13.2425 8.8446 12.0149 7.61707 10.5007 7.61707C8.98645 7.61707 7.75891 8.8446 7.75891 10.3588C7.75891 11.8731 8.98645 13.1006 10.5007 13.1006Z" fill="#3E3E3E"/>
<path d="M20.3848 0H0.615234C0.275461 0 0 0.275461 0 0.615234V20.3848C0 20.7245 0.275461 21 0.615234 21H20.3848C20.7245 21 21 20.7245 21 20.3848V0.615234C21 0.275461 20.7245 0 20.3848 0ZM18.3459 13.3627C18.3459 16.1104 16.1104 18.3458 13.3627 18.3458H7.63727C4.88955 18.3458 2.65412 16.1104 2.65412 13.3627V7.63727C2.65412 4.88955 4.88955 2.65416 7.63727 2.65416H13.3627C16.1104 2.65416 18.3459 4.88955 18.3459 7.63727V13.3627Z" fill="#3E3E3E"/>
</svg>
