<svg width="21" height="21" viewBox="0 0 21 21" fill="none" xmlns="http://www.w3.org/2000/svg">
<path d="M9.23505 15.5336C9.23505 15.5594 9.23505 15.5917 9.22077 15.6096C9.124 15.7345 9.0088 15.8387 8.85766 15.894C8.72633 15.9419 8.62173 15.8834 8.59408 15.747C8.58302 15.693 8.58256 15.6364 8.58256 15.5811C8.5821 14.565 8.57934 12.4817 8.57795 12.4564H7.82823C7.82823 12.4845 7.82731 15.3866 7.82916 15.935C7.82962 16.0833 7.84528 16.2308 7.90703 16.3686C7.97338 16.5179 8.08352 16.6123 8.24756 16.6395C8.36783 16.6603 8.48533 16.6469 8.59961 16.6077C8.8337 16.5271 9.0171 16.375 9.17884 16.1926C9.19312 16.1764 9.20833 16.1608 9.23551 16.1317V16.587H9.98708V14.595C9.98708 13.9047 9.98708 12.45 9.98708 12.45L9.23505 12.4518V15.5336Z" fill="#3E3E3E"/>
<path d="M12.788 12.7795C12.6295 12.4417 12.2963 12.3523 12.0074 12.4246C11.8323 12.4689 11.6904 12.5698 11.5738 12.7002C11.5351 12.744 11.4927 12.8288 11.4927 12.8288C11.4927 12.8288 11.4927 11.5814 11.4927 10.9851H10.7397V16.5861H11.4927V16.2719C11.4927 16.2719 11.5461 16.3285 11.5655 16.3493C11.7383 16.5368 11.948 16.6396 12.2065 16.6419C12.5244 16.6451 12.7456 16.4912 12.846 16.1889C12.8926 16.0484 12.9078 15.9037 12.9082 15.7571C12.9092 14.9742 12.9092 14.1913 12.9078 13.4084C12.9078 13.1919 12.8815 12.979 12.788 12.7795ZM12.1327 15.6636C12.1327 15.7056 12.1277 15.748 12.1189 15.789C12.0843 15.953 11.9595 16.0268 11.7825 15.9903C11.6752 15.9682 11.5913 15.9065 11.5194 15.8286C11.5162 15.8249 11.495 15.7964 11.495 15.7964V15.7351L11.4931 13.2481C11.4931 13.2481 11.5093 13.2021 11.5448 13.1712C11.6332 13.0928 11.7309 13.0435 11.853 13.0555C11.9572 13.0657 12.0401 13.1136 12.0788 13.2099C12.1078 13.2832 12.1309 13.3647 12.1313 13.4431C12.135 14.183 12.1337 14.9231 12.1327 15.6636Z" fill="#3E3E3E"/>
<path d="M10.0803 7.89782C10.2559 7.89782 10.3987 7.75502 10.3987 7.57945V5.33301C10.3987 5.15745 10.2558 5.01465 10.0803 5.01465C9.90481 5.01465 9.76196 5.1575 9.76196 5.33301V7.57945C9.76192 7.75497 9.90476 7.89782 10.0803 7.89782Z" fill="#3E3E3E"/>
<path d="M7.82979 10.9858H5.22168V11.7885H6.10042V16.5868H6.94921V11.7867H7.82979V10.9858Z" fill="#3E3E3E"/>
<path d="M14.9388 15.1183V15.6496C14.9388 15.8353 14.7886 15.9855 14.6034 15.9855C14.4177 15.9855 14.2675 15.8353 14.2675 15.6496V14.616H15.7093C15.7093 14.616 15.7176 13.8949 15.7116 13.5677C15.7093 13.4281 15.6987 13.2866 15.6701 13.1502C15.5955 12.7963 15.4052 12.5295 15.049 12.4125C14.9444 12.3779 14.8319 12.36 14.7218 12.3531C14.3555 12.3296 14.0348 12.4342 13.7841 12.7148C13.5643 12.9604 13.4878 13.2562 13.4873 13.5769C13.4859 14.1903 13.4832 14.804 13.4892 15.4174C13.491 15.5736 13.5085 15.733 13.544 15.8851C13.6205 16.2118 13.7988 16.4684 14.1136 16.6104C14.3435 16.7145 14.5863 16.7196 14.8315 16.6836C15.2268 16.6256 15.4964 16.4136 15.6268 16.0316C15.725 15.7454 15.7134 15.1183 15.7134 15.1183H14.9388ZM14.2675 13.395C14.2675 13.2097 14.4177 13.059 14.6034 13.059C14.7886 13.059 14.9388 13.2097 14.9388 13.395V13.9751H14.2675V13.395Z" fill="#3E3E3E"/>
<path d="M0 0V21H21V0H0ZM11.8303 4.37712H12.595V7.54838C12.595 7.59041 12.5984 7.63289 12.6058 7.67409C12.629 7.80477 12.7256 7.86629 12.8514 7.82265C13.0048 7.76956 13.1219 7.66335 13.2212 7.5382C13.2353 7.52032 13.2327 7.48696 13.2327 7.46074V4.37712H14.003L14.0028 8.53555H13.2323L13.2332 8.0888C13.148 8.17272 13.0753 8.2511 12.9954 8.32151C12.8537 8.44629 12.6933 8.53933 12.5056 8.57605C12.2175 8.63236 11.972 8.54131 11.8802 8.2429C11.8496 8.1435 11.8311 8.03637 11.8303 7.93259V4.37712ZM10.0801 4.27303C10.6895 4.27303 11.1834 4.767 11.1834 5.37636V7.53562C11.1834 8.14498 10.6895 8.63895 10.0801 8.63895C9.47074 8.63895 8.97676 8.14498 8.97676 7.53562V5.37636C8.97672 4.767 9.47069 4.27303 10.0801 4.27303ZM7.1121 2.90625C7.1121 2.90625 7.46253 4.39468 7.6298 5.09975H7.63008C7.79735 4.39468 8.14779 2.90625 8.14779 2.90625H9.02464C9.02464 2.90625 8.35095 5.14053 8.04968 6.13696C8.03881 6.17294 8.03388 6.21211 8.03388 6.24985L8.03425 8.53467H7.22568L7.22601 6.24985C7.22601 6.21211 7.22103 6.17299 7.2102 6.13696C6.90893 5.14053 6.23524 2.90625 6.23524 2.90625H7.1121ZM16.7537 16.1678C16.7537 17.1898 15.9371 18.0248 14.9155 18.0465C11.9724 18.1096 9.02791 18.1096 6.08433 18.0465C5.0632 18.0248 4.24667 17.1898 4.24667 16.1678V11.5709C4.24667 10.5493 5.0632 9.71432 6.08433 9.69266C9.02791 9.62953 11.9724 9.62953 14.9155 9.69266C15.9371 9.71432 16.7537 10.5493 16.7537 11.5709V16.1678Z" fill="#3E3E3E"/>
</svg>
