<svg width="21" height="21" viewBox="0 0 21 21" fill="none" xmlns="http://www.w3.org/2000/svg">
<path fill-rule="evenodd" clip-rule="evenodd" d="M0 0H21V21H0V0ZM15.73 8.7002H14.4543V10.0064H13.1843V11.3186H14.4543V12.6248H15.73V11.3186H17V10.0064H15.73V8.7002ZM11.5771 10.6044C11.5771 13.1772 9.89997 15 7.37519 15C4.95775 15 3 12.9864 3 10.5C3 8.0136 4.95775 6 7.37519 6C8.55708 6 9.54179 6.4422 10.3066 7.1784L9.11885 8.3508C8.79625 8.0316 8.22923 7.6572 7.37577 7.6572C5.88354 7.6572 4.66607 8.9286 4.66607 10.5C4.66607 12.0714 5.88413 13.3422 7.37577 13.3422C9.10718 13.3422 9.75763 12.0594 9.85913 11.4024H7.37577V9.8556H11.506C11.5474 10.0824 11.5771 10.3098 11.5771 10.6044Z" fill="#3E3E3E"/>
</svg>
