<svg width="210" height="210" viewBox="0 0 210 210" fill="none" xmlns="http://www.w3.org/2000/svg">
<path d="M28.8646 41.374C24.8094 39.2814 19.8267 40.8766 17.7297 44.9362L5.49704 68.6935C3.4045 72.7486 4.99968 77.7403 9.05034 79.8283L24.5809 87.8132C23.1067 94.6823 22.56 101.601 22.8692 108.452L6.22297 113.789C1.88104 115.164 -0.525146 119.829 0.872868 124.166L9.02347 149.622C10.408 153.964 15.0591 156.374 19.3966 154.976L36.0563 149.644C39.7753 155.397 44.2517 160.716 49.4136 165.448L41.4153 180.956C39.3138 185.029 40.918 190.012 44.9776 192.1L68.7259 204.35C72.7811 206.434 77.7727 204.83 79.8608 200.797L87.859 185.253C94.7236 186.723 101.646 187.274 108.493 186.969L113.812 203.607C115.192 207.962 119.852 210.346 124.198 208.957L149.641 200.819C154.005 199.43 156.393 194.775 154.995 190.428L149.681 173.796C155.43 170.072 160.757 165.596 165.485 160.429L181.006 168.432C185.066 170.511 190.053 168.929 192.141 164.861L204.378 141.117C206.466 137.066 204.88 132.075 200.82 129.978L185.294 121.979C186.755 115.133 187.315 108.21 187.006 101.35L203.63 96.0355C207.985 94.6375 210.378 89.9954 208.998 85.64L200.852 60.189C199.463 55.8426 194.803 53.4498 190.465 54.8388L173.832 60.1621C170.104 54.4087 165.624 49.0944 160.462 44.3627L168.46 28.8456C170.539 24.786 168.953 19.7944 164.907 17.7108L141.154 5.47363C137.09 3.37213 132.116 4.97627 130.006 9.03141L122.025 24.5485C115.17 23.0878 108.242 22.5321 101.382 22.8413L96.0679 6.19058C94.6833 1.85763 90.0188 -0.5396 85.6724 0.849453L60.2303 8.99558C55.8884 10.3891 53.4822 15.0268 54.8712 19.3821L60.2034 36.0149C54.45 39.7519 49.1358 44.2148 44.3995 49.3722L28.8646 41.374ZM124.88 66.1887C146.249 77.1981 154.655 103.474 143.65 124.829C132.627 146.23 106.36 154.618 84.9913 143.599C63.5999 132.586 55.1894 106.314 66.2211 84.9499C77.226 63.5854 103.497 55.1749 124.88 66.1887Z" fill="#C4C4C4" fill-opacity="0.33"/>
</svg>
